<?xml version="1.0" encoding="UTF-8"?>
<svg id="ICONO" xmlns="http://www.w3.org/2000/svg" viewBox="0 0 79.2 132.99">
  <defs>
    <style>
      .cls-1 {
        fill: none;
        stroke: #fff;
        stroke-miterlimit: 10;
        stroke-width: 2.8px;
      }

      .cls-2 {
        fill: #4160a1;
      }

      .cls-3 {
        fill: #fff;
      }

      .cls-4 {
        fill: #fed32e;
      }
    </style>
  </defs>
  <g>
    <path class="cls-2" d="M60.13,112.96c-4.16,0-7.64,3.36-8.5,7.84,0-.02,0-.04,0-.04h-24.45c.11.18,0-.35.01.14-.49-5-4.03-7.95-8.51-7.95-4.81,0-8.72,4.48-8.72,10.01s3.9,10.01,8.72,10.01c3.88,0,7.17-2.92,8.3-6.95,0,0,.08-.08.08-.08,0,0,24.89.45,24.58.09-.12-.13.25.72-.05-.13,1.31,3.61,4.11,7.06,8.56,7.06,4.81,0,8.72-4.48,8.72-10.01s-3.9-10.01-8.72-10.01Z"/>
    <path class="cls-2" d="M79.2,49.3l-35.42,41.76s-6.9,10.49-17.71-1.71C15.25,77.14,2.98,61.32,2.98,61.32l6.01,37.86s1.82,10.28,12.3,10.28h39.85s6.19-.68,7.77-6.68c1.58-6,10.28-53.48,10.28-53.48Z"/>
  </g>
  <path id="Etiqueta-2" data-name="Etiqueta" class="cls-4" d="M41.24,86.33l.13-.21,31.84-36.33s2.21-1.63,3.03-5.44c.36-1.14.55-2.47.3-3.94l-.18-17.13-.44-11.81s-.04-.47-.19-1.19c0-.11,0-.17,0-.17,0,0-.13-.87-.57-2.07-.52-1.56-1.28-2.78-2.11-3.72-.04-.05-.08-.09-.13-.14-.05-.05-.09-.11-.14-.16-.08-.09-.17-.18-.25-.26-.03-.03-.05-.06-.08-.08-.72-.71-1.58-1.34-2.63-1.81-1.04-.51-1.8-.67-1.8-.67,0,0-.17,0-.47-.01-.37-.06-.75-.11-1.15-.14h-.99s-8.95-.54-8.95-.54l-12.91-.32c-.67-.05-1.27-.1-1.76-.15-.58-.06-1.12-.06-1.63-.03-.05,0-.09,0-.14,0-4.6.3-6.55,3.73-6.55,3.73L1.2,40.42s-4.07,5.91,2.78,13.84c6.85,7.93,24.43,28.91,24.43,28.91l2.94,3.41s5.38,5.43,9.89-.25ZM60.61,18.51c-1.6-1.86-1.59-4.85.03-6.69s4.23-1.83,5.83.03,1.59,4.85-.03,6.69c-1.62,1.84-4.23,1.83-5.83-.03Z"/>
  <path class="cls-3" d="M33.09,25.3c-3.53,0-6.39,3.29-6.39,7.34s2.86,7.34,6.39,7.34,6.39-3.29,6.39-7.34-2.86-7.34-6.39-7.34ZM33.09,35.57c-1.41,0-2.55-1.31-2.55-2.93s1.14-2.93,2.55-2.93,2.55,1.31,2.55,2.93-1.14,2.93-2.55,2.93Z"/>
  <line class="cls-1" x1="28.51" y1="55.39" x2="52.53" y2="28.46"/>
  <path class="cls-3" d="M51.67,43.7c-2.52-2.84-4.35-.91-6.83,1.98-2.47,2.89-4.65,5.65-2.13,8.5,2.52,2.84,6.57,2.8,9.04-.1,2.47-2.89,2.44-7.54-.08-10.38ZM45.4,51.03c-1-1.13-.55-2.34.44-3.5s2.13-1.81,3.13-.68c1,1.13,1.2,3.31.21,4.46-.99,1.15-2.78.85-3.78-.28Z"/>
</svg>