<?xml version="1.0" encoding="UTF-8"?>
<svg id="Capa_2" data-name="Capa 2" xmlns="http://www.w3.org/2000/svg" viewBox="0 0 225.16 106.7">
  <defs>
    <style>
      .cls-1 {
        font-size: 36px;
      }

      .cls-1, .cls-2 {
        fill: #fff;
      }

      .cls-3 {
        font-family: HighVoltage, Regular;
      }

      .cls-4 {
        fill: none;
        stroke: #fff;
        stroke-miterlimit: 10;
        stroke-width: 2.8px;
      }

      .cls-5 {
        fill: #4160a1;
      }

      .cls-6 {
        fill: #fdd331;
        font-size: 42px;
      }

      .cls-7 {
        letter-spacing: -.02em;
      }

      .cls-8 {
        letter-spacing: -.02em;
      }

      .cls-9 {
        letter-spacing: -.04em;
      }

      .cls-10 {
        fill: #fed32e;
      }
    </style>
  </defs>
  <g id="Cudrangular">
    <g id="Carro">
      <g>
        <path class="cls-5" d="M44.77,84.11c-3.1,0-5.69,2.5-6.33,5.84,0-.02,0-.03,0-.03h-18.2c.08.14,0-.26,0,.11-.36-3.72-3-5.92-6.34-5.92-3.58,0-6.49,3.34-6.49,7.45s2.91,7.45,6.49,7.45c2.89,0,5.34-2.17,6.18-5.17,0,0,.06-.06.06-.06,0,0,18.53.34,18.3.07-.09-.1.19.54-.04-.09.98,2.69,3.06,5.26,6.37,5.26,3.58,0,6.49-3.34,6.49-7.45s-2.91-7.45-6.49-7.45Z"/>
        <path class="cls-5" d="M58.97,36.71l-26.38,31.09s-5.14,7.81-13.19-1.28C11.35,57.43,2.22,45.65,2.22,45.65l4.48,28.19s1.35,7.65,9.16,7.65h29.67s4.61-.51,5.79-4.97c1.18-4.46,7.65-39.82,7.65-39.82Z"/>
      </g>
      <path id="Etiqueta" class="cls-10" d="M30.71,64.28l.1-.15,23.71-27.05s1.65-1.21,2.26-4.05c.27-.85.41-1.84.22-2.93l-.14-12.75-.32-8.79s-.03-.35-.14-.89c0-.08,0-.12,0-.12,0,0-.1-.65-.42-1.54-.39-1.16-.95-2.07-1.57-2.77-.03-.04-.06-.07-.09-.11-.03-.04-.07-.08-.1-.12-.06-.07-.12-.13-.19-.2-.02-.02-.04-.04-.06-.06-.53-.53-1.18-1-1.95-1.35-.78-.38-1.34-.5-1.34-.5,0,0-.13,0-.35,0-.27-.05-.56-.08-.86-.1h-.74s-6.67-.4-6.67-.4l-9.61-.24c-.5-.04-.94-.07-1.31-.11-.43-.04-.83-.05-1.22-.03-.03,0-.07,0-.1,0-3.43.23-4.88,2.78-4.88,2.78L.89,30.09s-3.03,4.4,2.07,10.31c5.1,5.91,18.19,21.53,18.19,21.53l2.19,2.54s4,4.04,7.37-.18ZM45.13,13.79c-1.19-1.38-1.18-3.61.02-4.98s3.15-1.36,4.34.02,1.18,3.61-.02,4.98c-1.2,1.37-3.15,1.36-4.34-.02Z"/>
      <path class="cls-2" d="M24.64,18.84c-2.63,0-4.76,2.45-4.76,5.47s2.13,5.47,4.76,5.47,4.76-2.45,4.76-5.47-2.13-5.47-4.76-5.47ZM24.64,26.49c-1.05,0-1.9-.98-1.9-2.18s.85-2.18,1.9-2.18,1.9.98,1.9,2.18-.85,2.18-1.9,2.18Z"/>
      <line class="cls-4" x1="21.23" y1="41.25" x2="39.11" y2="21.19"/>
      <path class="cls-2" d="M38.47,32.54c-1.88-2.11-3.24-.68-5.08,1.48s-3.46,4.21-1.58,6.33c1.88,2.11,4.89,2.08,6.73-.07,1.84-2.15,1.81-5.62-.06-7.73ZM33.81,38c-.75-.84-.41-1.75.33-2.61s1.58-1.35,2.33-.51c.75.84.89,2.46.16,3.32-.73.86-2.07.63-2.82-.21Z"/>
    </g>
    <g id="Letras">
      <text class="cls-3" transform="translate(72.5 33.15) scale(.87 1)"><tspan class="cls-1"><tspan x="0" y="0">Descuentos Y</tspan></tspan><tspan class="cls-6"><tspan x="0" y="50.4">OFE</tspan><tspan class="cls-8" x="47.74" y="50.4">R</tspan><tspan class="cls-9" x="65.24" y="50.4">T</tspan><tspan class="cls-7" x="78.83" y="50.4">A</tspan><tspan x="96.74" y="50.4">S</tspan></tspan></text>
    </g>
  </g>
</svg>